HIERARCHY
ROOT hips_JNT
{
    OFFSET 0 0 0
    CHANNELS 6 Xposition Yposition Zposition Zrotation Xrotation Yrotation
    JOINT spine_JNT
    {
        OFFSET -0.000424254 9.31981 2.54342
        CHANNELS 3 Zrotation Xrotation Yrotation
        JOINT spine1_JNT
        {
            OFFSET 0 10.8731 -4.54485e-05
            CHANNELS 3 Zrotation Xrotation Yrotation
            JOINT spine2_JNT
            {
                OFFSET 0 12.4264 -5.95116
                CHANNELS 3 Zrotation Xrotation Yrotation
                JOINT neck_JNT
                {
                    OFFSET 0 13.9797 -1.46048
                    CHANNELS 3 Zrotation Xrotation Yrotation
                    JOINT head_JNT
                    {
                        OFFSET 0 5.8702 2.0915
                        CHANNELS 3 Zrotation Xrotation Yrotation
                        End Site
                        {
                            OFFSET 0 0 0
                        }
                    }
                }
                JOINT l_shoulder_JNT
                {
                    OFFSET 4.39914 12.861 -1.48501
                    CHANNELS 3 Zrotation Xrotation Yrotation
                    JOINT l_arm_JNT
                    {
                        OFFSET 8.75735 -2.31198 -0.0490516
                        CHANNELS 3 Zrotation Xrotation Yrotation
                        JOINT l_forearm_JNT
                        {
                            OFFSET 26.9001 -4.76837e-05 1.2666e-05
                            CHANNELS 3 Zrotation Xrotation Yrotation
                            JOINT l_hand_JNT
                            {
                                OFFSET 23.0148 -4.76837e-05 -3.72529e-06
                                CHANNELS 3 Zrotation Xrotation Yrotation
                                JOINT l_handThumb1_JNT
                                {
                                    OFFSET 3.63 -0.779998 2.13
                                    CHANNELS 3 Zrotation Xrotation Yrotation
                                    JOINT l_handThumb2_JNT
                                    {
                                        OFFSET 3.55114 -2.11837 2.24006
                                        CHANNELS 3 Zrotation Xrotation Yrotation
                                        JOINT l_handThumb3_JNT
                                        {
                                            OFFSET 2.15911 -1.11631 0.963467
                                            CHANNELS 3 Zrotation Xrotation Yrotation
                                            End Site
                                            {
                                                OFFSET 0 0 0
                                            }
                                        }
                                    }
                                }
                                JOINT l_handIndex1_JNT
                                {
                                    OFFSET 10.5149 -0.0410199 2.19757
                                    CHANNELS 3 Zrotation Xrotation Yrotation
                                    JOINT l_handIndex2_JNT
                                    {
                                        OFFSET 2.75183 -0.102866 -0.139054
                                        CHANNELS 3 Zrotation Xrotation Yrotation
                                        JOINT l_handIndex3_JNT
                                        {
                                            OFFSET 2.35301 -0.0733972 -0.0904871
                                            CHANNELS 3 Zrotation Xrotation Yrotation
                                            End Site
                                            {
                                                OFFSET 0 0 0
                                            }
                                        }
                                    }
                                }
                                JOINT l_handMiddle1_JNT
                                {
                                    OFFSET 10.0671 0.139201 0.0595726
                                    CHANNELS 3 Zrotation Xrotation Yrotation
                                    JOINT l_handMiddle2_JNT
                                    {
                                        OFFSET 3.90903 -0.288403 -0.119066
                                        CHANNELS 3 Zrotation Xrotation Yrotation
                                        JOINT l_handMiddle3_JNT
                                        {
                                            OFFSET 2.3284 -0.0191092 -0.0594396
                                            CHANNELS 3 Zrotation Xrotation Yrotation
                                            End Site
                                            {
                                                OFFSET 0 0 0
                                            }
                                        }
                                    }
                                }
                                JOINT l_handRing1_JNT
                                {
                                    OFFSET 9.46811 0.132239 -1.80983
                                    CHANNELS 3 Zrotation Xrotation Yrotation
                                    JOINT l_handRing2_JNT
                                    {
                                        OFFSET 3.28153 -0.224054 -0.0339366
                                        CHANNELS 3 Zrotation Xrotation Yrotation
                                        JOINT l_handRing3_JNT
                                        {
                                            OFFSET 2.245 -0.0702143 -0.00838935
                                            CHANNELS 3 Zrotation Xrotation Yrotation
                                            End Site
                                            {
                                                OFFSET 0 0 0
                                            }
                                        }
                                    }
                                }
                                JOINT l_handPinky1_JNT
                                {
                                    OFFSET 8.49077 -0.0777721 -3.58415
                                    CHANNELS 3 Zrotation Xrotation Yrotation
                                    JOINT l_handPinky2_JNT
                                    {
                                        OFFSET 2.53217 -0.0730753 -0.0170402
                                        CHANNELS 3 Zrotation Xrotation Yrotation
                                        JOINT l_handPinky3_JNT
                                        {
                                            OFFSET 1.95121 0.0251174 0.0170089
                                            CHANNELS 3 Zrotation Xrotation Yrotation
                                            End Site
                                            {
                                                OFFSET 0 0 0
                                            }
                                        }
                                    }
                                }
                            }
                        }
                    }
                }
                JOINT r_shoulder_JNT
                {
                    OFFSET -4.39782 12.8606 -1.48501
                    CHANNELS 3 Zrotation Xrotation Yrotation
                    JOINT r_arm_JNT
                    {
                        OFFSET -8.75732 -2.312 -0.0490502
                        CHANNELS 3 Zrotation Xrotation Yrotation
                        JOINT r_forearm_JNT
                        {
                            OFFSET -26.9 0 1.00583e-05
                            CHANNELS 3 Zrotation Xrotation Yrotation
                            JOINT r_hand_JNT
                            {
                                OFFSET -23.0149 0 0
                                CHANNELS 3 Zrotation Xrotation Yrotation
                                JOINT r_handThumb1_JNT
                                {
                                    OFFSET -3.63 -0.779998 2.13
                                    CHANNELS 3 Zrotation Xrotation Yrotation
                                    JOINT r_handThumb2_JNT
                                    {
                                        OFFSET -3.5512 -2.118 2.24006
                                        CHANNELS 3 Zrotation Xrotation Yrotation
                                        JOINT r_handThumb3_JNT
                                        {
                                            OFFSET -2.1591 -1.116 0.963467
                                            CHANNELS 3 Zrotation Xrotation Yrotation
                                            End Site
                                            {
                                                OFFSET 0 0 0
                                            }
                                        }
                                    }
                                }
                                JOINT r_handIndex1_JNT
                                {
                                    OFFSET -10.5149 -0.0409961 2.19756
                                    CHANNELS 3 Zrotation Xrotation Yrotation
                                    JOINT r_handIndex2_JNT
                                    {
                                        OFFSET -2.7518 -0.102997 -0.13905
                                        CHANNELS 3 Zrotation Xrotation Yrotation
                                        JOINT r_handIndex3_JNT
                                        {
                                            OFFSET -2.353 -0.0730038 -0.0904899
                                            CHANNELS 3 Zrotation Xrotation Yrotation
                                            End Site
                                            {
                                                OFFSET 0 0 0
                                            }
                                        }
                                    }
                                }
                                JOINT r_handMiddle1_JNT
                                {
                                    OFFSET -10.0671 0.139999 0.05957
                                    CHANNELS 3 Zrotation Xrotation Yrotation
                                    JOINT r_handMiddle2_JNT
                                    {
                                        OFFSET -3.9091 -0.288999 -0.11907
                                        CHANNELS 3 Zrotation Xrotation Yrotation
                                        JOINT r_handMiddle3_JNT
                                        {
                                            OFFSET -2.3284 -0.019002 -0.05944
                                            CHANNELS 3 Zrotation Xrotation Yrotation
                                            End Site
                                            {
                                                OFFSET 0 0 0
                                            }
                                        }
                                    }
                                }
                                JOINT r_handRing1_JNT
                                {
                                    OFFSET -9.4681 0.133002 -1.80983
                                    CHANNELS 3 Zrotation Xrotation Yrotation
                                    JOINT r_handRing2_JNT
                                    {
                                        OFFSET -3.2816 -0.224996 -0.0339396
                                        CHANNELS 3 Zrotation Xrotation Yrotation
                                        JOINT r_handRing3_JNT
                                        {
                                            OFFSET -2.245 -0.0699997 -0.0083901
                                            CHANNELS 3 Zrotation Xrotation Yrotation
                                            End Site
                                            {
                                                OFFSET 0 0 0
                                            }
                                        }
                                    }
                                }
                                JOINT r_handPinky1_JNT
                                {
                                    OFFSET -8.4908 -0.0769973 -3.58415
                                    CHANNELS 3 Zrotation Xrotation Yrotation
                                    JOINT r_handPinky2_JNT
                                    {
                                        OFFSET -2.5322 -0.0740051 -0.0170402
                                        CHANNELS 3 Zrotation Xrotation Yrotation
                                        JOINT r_handPinky3_JNT
                                        {
                                            OFFSET -1.9512 0.0259995 0.0170097
                                            CHANNELS 3 Zrotation Xrotation Yrotation
                                            End Site
                                            {
                                                OFFSET 0 0 0
                                            }
                                        }
                                    }
                                }
                            }
                        }
                    }
                }
            }
        }
    }
    JOINT l_upleg_JNT
    {
        OFFSET 10.0614 -5.18575 -0.706233
        CHANNELS 3 Zrotation Xrotation Yrotation
        JOINT l_leg_JNT
        {
            OFFSET -0.348572 -45.5824 -0.819168
            CHANNELS 3 Zrotation Xrotation Yrotation
            JOINT l_foot_JNT
            {
                OFFSET 0.349145 -42.3325 -1.70849
                CHANNELS 3 Zrotation Xrotation Yrotation
                JOINT l_toebase_JNT
                {
                    OFFSET 0.0702709 -8.12666 12.8887
                    CHANNELS 3 Zrotation Xrotation Yrotation
                    End Site
                    {
                        OFFSET 0 0 0
                    }
                }
            }
        }
    }
    JOINT r_upleg_JNT
    {
        OFFSET -10.061 -5.18577 -0.706233
        CHANNELS 3 Zrotation Xrotation Yrotation
        JOINT r_leg_JNT
        {
            OFFSET 0.34858 -45.5824 -0.819165
            CHANNELS 3 Zrotation Xrotation Yrotation
            JOINT r_foot_JNT
            {
                OFFSET -0.34918 -42.3325 -1.70849
                CHANNELS 3 Zrotation Xrotation Yrotation
                JOINT r_toebase_JNT
                {
                    OFFSET -0.0702001 -8.12666 12.8887
                    CHANNELS 3 Zrotation Xrotation Yrotation
                    End Site
                    {
                        OFFSET 0 0 0
                    }
                }
            }
        }
    }
}
MOTION
Frames: 6
Frame Time: 0.033333
-64.7775 98.8158 -6.95897 0.718171 -3.82327 -7.71302 2.33772 -0.00949816 0.0559529 -0.531769 2.14192 -9.40847 2.13443e-07 -6.21202e-18 0 3.61655 21.9996 -2.90936 -9.85695 1.83258 0.0395647 2.13443e-07 -6.21202e-18 0 -18.9904 4.83484 -37.1386 10.0458 -13.1991 -105.554 2.04906e-05 -2.13443e-06 0 4.10661 20.7048 -22.2077 -0 0 0 -8.61157 -0.064598 0.860477 -13.5625 4.02424 0.478062 -17.4561 5.14235 0.788322 -11.62 3.45794 0.353877 -15.8579 3.12813 0.43341 -20.4018 3.98822 0.715455 -13.5889 2.69039 0.321425 -18.0909 -1.77861 -0.288035 -23.2645 -2.26187 -0.468136 -15.5051 -1.53129 -0.201741 -19.8333 -3.88197 -0.679547 -25.525 -4.92563 -1.11626 -16.9931 -3.34521 -0.505128 2.13443e-07 -6.21202e-18 0 79.3242 45.1409 -18.5447 -0.10838 -0.074696 69.1408 -1.01778e-13 3.41509e-06 0 -4.10661 20.7048 22.2077 -0 0 0 17.7624 0.273193 1.74804 28.1227 8.04873 -2.01938 36.3076 10.0727 -3.3101 24.0629 6.97388 -1.48935 32.8132 6.1856 -1.82343 42.2893 7.66452 -2.96796 28.0967 5.38094 -1.34869 37.3553 -3.4722 1.17502 48.0635 -4.25431 1.89748 32.0085 -3.0341 0.870425 41.1015 -7.49022 2.81167 53.0229 -9.07771 4.53507 35.1767 -6.57264 2.08498 7.57954 5.65096 0.868625 -0.512197 21.3996 0 1.7899 -8.4993 0.0791294 -0.232295 -15.1075 -1.75162 -13.524 5.91306 1.35622 0.494808 18.6579 -0.250229 4.6308 -8.01902 5.96248 0.137418 -13.9044 1.12604 
-65.8212 99.3525 -6.47466 1.97669 -2.57707 -9.55073 2.45762 -0.012922 0.0395647 -1.39535 2.21427 -7.3377 6.67011e-09 -5.33608e-08 0 3.52152 20.6411 -2.81695 -9.44046 0.448894 0.0395647 6.67011e-09 -5.33608e-08 0 -22.0505 2.68213 -36.137 13.935 -18.1222 -105.074 -2.54444e-14 -8.53774e-07 0 4.10661 20.7048 -22.2077 -0 0 0 -8.1954 -0.0585153 0.816608 -12.9051 3.83314 0.4316 -16.6083 4.90102 0.713264 -11.0571 3.29295 0.316518 -15.0901 2.98056 0.393664 -19.4128 3.80311 0.651318 -12.9313 2.56264 0.29342 -17.216 -1.69532 -0.256409 -22.139 -2.1582 -0.427958 -14.7554 -1.45897 -0.197823 -18.8721 -3.70138 -0.618021 -24.2857 -4.70242 -1.01103 -16.1701 -3.18796 -0.454564 6.67011e-09 -5.33608e-08 0 82.4122 42.0968 -22.713 -0.697334 -0.485129 69.6508 8.53774e-07 -6.36111e-15 0 -4.10661 20.7048 22.2077 -0 0 0 17.8466 0.275768 1.75653 28.2577 8.08373 -2.03866 36.4832 10.1138 -3.3407 24.1781 7.00495 -1.50295 32.97 6.21161 -1.8401 42.492 7.69393 -2.99527 28.2306 5.40434 -1.35968 37.5328 -3.48624 1.18431 48.2921 -4.26947 1.91391 32.1605 -3.04694 0.880261 41.2984 -7.51936 2.83717 53.2782 -9.10757 4.57563 35.3449 -6.59974 2.10478 6.51545 8.30854 0.806966 -0.489893 14.1099 0 2.03515 -4.47466 0.0395647 -0.267112 -15.9527 -1.90571 -11.7078 7.1438 -0.216705 0.508551 20.4451 0 3.10217 -6.09034 3.34445 0.224019 -19.8222 1.28266 
-67.7578 99.8126 -5.60471 3.37545 -1.51579 -11.5739 1.88145 -0.0119932 0 -2.07112 2.20178 -5.16131 -2.00103e-07 -1.60083e-07 0 3.48263 19.6626 -2.77298 -8.8669 -0.98442 -0.153233 -2.00103e-07 -1.60083e-07 0 -25.5808 0.178265 -35.6539 16.4251 -21.0873 -104.419 1.70755e-06 8.53774e-07 0 4.10661 20.7048 -22.2077 -0 0 0 -7.89827 -0.0543556 0.786334 -12.4358 3.69639 0.401538 -16.0033 4.72806 0.664405 -10.6554 3.17496 0.298707 -14.542 2.87486 0.369035 -18.707 3.67025 0.605224 -12.4618 2.47122 0.262442 -16.5915 -1.63561 -0.240663 -21.3356 -2.08367 -0.39762 -14.2202 -1.40719 -0.176939 -18.186 -3.5718 -0.571981 -23.4014 -4.54171 -0.939612 -15.5827 -3.0753 -0.426125 -2.00103e-07 -1.60083e-07 0 84.3203 39.5982 -25.5445 -1.47181 -1.03213 70.08 1.28066e-06 -2.86747e-14 0 -4.10661 20.7048 22.2077 -0 0 0 17.8872 0.277014 1.76053 28.3229 8.10061 -2.04709 36.5679 10.1336 -3.3559 24.2337 7.01993 -1.50867 33.0456 6.22414 -1.84731 42.5898 7.70809 -3.00856 28.2952 5.41563 -1.36542 37.6184 -3.493 1.18958 48.4024 -4.27676 1.92288 32.2338 -3.05312 0.882924 41.3935 -7.53338 2.849 53.4013 -9.12191 4.59509 35.426 -6.61279 2.11332 5.84555 15.2507 0 -0.477787 -1.2804 0.0884693 2.00936 4.46242 0.125115 -0.369405 -16.5652 -2.19293 -11.5747 10.6241 0.068528 4.25369 15.3893 -1.07918 -0.878706 -0.835826 0.41684 0.286603 -29.8071 1.57417 
-70.0757 100.149 -4.74714 4.65821 -0.938303 -13.6373 0.0945855 -0.00737575 0.0395647 -2.32424 2.12289 -3.07216 5.43552e-18 1.86763e-07 0 3.78489 19.2155 -3.0096 -7.93939 -2.41133 -0.243893 5.43552e-18 1.86763e-07 0 -28.2982 -2.49651 -35.5498 16.1963 -20.9062 -104.718 -0 0 0 4.10661 20.7048 -22.2077 -0 0 0 -7.77259 -0.0526421 0.774298 -12.2374 3.63848 0.387653 -15.7475 4.65474 0.644067 -10.4855 3.12501 0.288035 -14.3102 2.83008 0.362616 -18.4085 3.61389 0.58684 -12.2633 2.43251 0.250229 -16.3273 -1.6103 -0.227282 -20.9958 -2.05203 -0.385629 -13.9938 -1.38524 -0.163129 -17.8959 -3.51684 -0.556725 -23.0276 -4.47341 -0.911709 -15.3342 -3.02754 -0.411168 5.43552e-18 1.86763e-07 0 85.1476 37.6564 -27.5919 -1.98361 -1.41394 70.9609 -9.39151e-06 8.53774e-06 0 -4.10661 20.7048 22.2077 -0 0 0 17.9022 0.277475 1.76098 28.3469 8.10684 -2.05015 36.5992 10.1409 -3.36172 24.2542 7.02547 -1.51229 33.0735 6.22877 -1.8507 42.626 7.71332 -3.01272 28.3191 5.41979 -1.36828 37.65 -3.4955 1.19287 48.4431 -4.27945 1.92614 32.2609 -3.05541 0.884695 41.4286 -7.53856 2.85422 53.4469 -9.1272 4.60258 35.456 -6.61761 2.11702 5.39311 15.1754 0.104678 -0.476804 -1.28061 0.111906 2.49739 6.9055 0 -0.667075 -14.1482 -2.74889 -9.42589 9.8015 1.51952 2.52823 17.7455 -0.921953 -1.02818 -1.12829 0.362616 0.286867 -28.2474 1.22075 
-72.1167 100.344 -4.19789 5.30938 -1.01104 -15.7934 -2.61621 -0.00257814 0.0559529 -2.18509 2.03466 -1.05424 -5.33608e-08 -2.26784e-07 0 4.54447 19.3426 -3.6155 -6.594 -3.73783 -0.276953 -5.33608e-08 -2.26784e-07 0 -29.2649 -5.22026 -35.5034 13.7708 -18.0404 -105.481 -3.41509e-06 -8.53773e-07 0.0559529 4.10661 20.7048 -22.2077 -0 0 0 -7.74559 -0.0522775 0.774298 -12.1948 3.62603 0.387653 -15.6926 4.63897 0.641632 -10.449 3.11427 0.282548 -14.2604 2.82045 0.356082 -18.3444 3.60177 0.582825 -12.2206 2.42418 0.262442 -16.2705 -1.60485 -0.213062 -20.9228 -2.04522 -0.377423 -13.9452 -1.38053 -0.176939 -17.8336 -3.50502 -0.551073 -22.9472 -4.45871 -0.901348 -15.2808 -3.01727 -0.403482 -5.33608e-08 -2.26784e-07 0 85.3444 36.1686 -29.167 -2.19912 -1.61645 72.6319 -6.83019e-06 3.41509e-06 0 -4.10661 20.7048 22.2077 -0 0 0 17.8944 0.277236 1.76053 28.3344 8.1036 -2.04862 36.583 10.1371 -3.35869 24.2435 7.02259 -1.5097 33.059 6.22637 -1.84985 42.6072 7.7106 -3.01064 28.3067 5.41763 -1.36657 37.6336 -3.4942 1.19155 48.4219 -4.27806 1.9241 32.2468 -3.05422 0.882924 41.4103 -7.53587 2.85203 53.4232 -9.12445 4.59867 35.4404 -6.61511 2.11517 5.61777 15.3829 -0.543925 0.911984 5.38116 0 2.0678 5.78171 0.118694 -1.61008 -2.50476 -3.40614 -7.76088 9.13033 3.83795 0.478169 18.7097 -0.631798 -1.1196 -1.4722 0.34264 0.252841 -27.5457 1.03172 
-73.4143 100.363 -3.97399 4.81853 -1.61907 -18.2326 -5.21109 0.00142295 0.0559529 -1.83531 1.97488 1.10357 -0 0 0 5.56142 19.9619 -4.43717 -4.97798 -4.85602 -0.256409 -0 0 0 -28.6204 -7.79365 -35.218 10.5899 -13.9447 -105.689 -0 0 0 4.10661 20.7048 -22.2077 -0 0 0 -7.74472 -0.0522658 0.775308 -12.1934 3.62563 0.387653 -15.6908 4.63847 0.639188 -10.4478 3.11393 0.276953 -14.2588 2.82014 0.356082 -18.3423 3.60138 0.580133 -12.2192 2.42392 0.259443 -16.2687 -1.60468 -0.223812 -20.9204 -2.045 -0.381548 -13.9436 -1.38037 -0.172458 -17.8316 -3.50464 -0.548225 -22.9446 -4.45824 -0.905679 -15.2791 -3.01695 -0.405418 -0 0 0 85.2192 35.2103 -30.181 -2.33206 -1.78201 74.767 1.02453e-05 -1.19528e-05 0 -4.10661 20.7048 22.2077 -0 0 0 17.8601 0.276183 1.75786 28.2794 8.08936 -2.04097 36.5115 10.1204 -3.34608 24.1966 7.00995 -1.50295 32.9952 6.21579 -1.84222 42.5246 7.69866 -2.99918 28.2522 5.40811 -1.36255 37.5613 -3.48849 1.18695 48.3288 -4.27191 1.91718 32.1849 -3.049 0.880261 41.3301 -7.52404 2.84158 53.3192 -9.11236 4.5823 35.3719 -6.60409 2.10813 5.5452 15.3329 -4.67516 2.78268 18.1842 -0.301316 1.57126 4.78984 0.323851 8.53774e-07 -3.41509e-06 0 -7.21136 10.2399 5.31689 0.465587 17.5892 -0.852251 -1.85116 -1.30429 0.393664 0.258581 -27.2297 1.06825 
